<?xml version="1.0" standalone="no"?>
<!DOCTYPE svg PUBLIC "-//W3C//DTD SVG 20010904//EN"
 "http://www.w3.org/TR/2001/REC-SVG-20010904/DTD/svg10.dtd">
<svg version="1.0" xmlns="http://www.w3.org/2000/svg"
 width="411.000000pt" height="410.000000pt" viewBox="0 0 411.000000 410.000000"
 preserveAspectRatio="xMidYMid meet">

<g transform="translate(0.000000,410.000000) scale(0.100000,-0.100000)"
fill="#000000" stroke="none">
<path d="M936 3232 c5 -4 43 -34 85 -65 102 -77 271 -253 337 -352 103 -155
187 -363 234 -576 19 -90 22 -134 23 -324 0 -194 -3 -232 -23 -323 -46 -205
-121 -384 -227 -541 -34 -50 -55 -92 -53 -105 2 -16 21 6 76 88 208 309 299
647 271 998 -37 457 -248 866 -593 1151 -56 45 -77 57 -105 57 -19 0 -31 -4
-25 -8z"/>
<path d="M1130 3237 c0 -2 35 -31 79 -65 307 -242 504 -584 577 -1002 21 -116
23 -380 5 -495 -44 -280 -151 -540 -308 -748 -23 -31 -43 -59 -43 -62 0 -3
169 -5 375 -5 322 0 375 2 375 15 0 8 -45 224 -100 482 -55 257 -98 468 -96
470 1 2 99 -213 216 -478 118 -265 219 -483 225 -485 5 -2 223 -3 483 -2 l472
3 -183 270 c-100 149 -258 381 -349 517 l-167 247 37 23 c53 32 130 106 159
152 90 142 93 367 8 581 -129 321 -422 524 -830 574 -78 10 -935 17 -935 8z
m850 -657 c46 -23 77 -65 96 -127 18 -60 18 -117 -1 -152 -17 -33 -78 -61
-133 -61 l-37 0 -38 173 c-20 95 -37 179 -37 186 0 19 100 7 150 -19z"/>
<path d="M834 3174 c4 -21 9 -39 9 -40 19 -6 152 -123 212 -186 272 -282 416
-703 384 -1121 -14 -195 -57 -358 -140 -537 -26 -56 -39 -98 -37 -116 3 -26 9
-19 50 62 154 301 208 681 143 1005 -40 195 -127 401 -246 579 -69 102 -222
268 -320 345 l-62 49 7 -40z"/>
<path d="M880 2970 c0 -17 18 -47 51 -85 107 -126 191 -274 248 -442 52 -152
72 -262 78 -439 6 -177 -3 -272 -42 -420 -17 -63 -21 -101 -16 -120 7 -27 10
-23 33 51 55 173 63 227 63 440 0 173 -3 214 -23 304 -58 259 -178 495 -347
686 -41 46 -45 48 -45 25z"/>
<path d="M951 2635 c-1 -20 30 -140 58 -219 36 -102 59 -212 71 -346 5 -58 16
-130 25 -160 14 -53 14 -50 10 105 -4 172 -17 252 -66 400 -30 89 -97 239 -98
220z"/>
</g>
</svg>
